<svg xmlns="http://www.w3.org/2000/svg" width="79.885" height="46.382" viewBox="0 0 79.885 46.382" fill="none">
  <path d="M 36.1 0.454 C 38.624 2.617 39.833 6.273 40.153 9.512 C 40.262 11.278 40.335 13.041 40.366 14.81 C 40.38 15.428 40.38 15.428 40.393 16.058 C 40.396 16.428 40.399 16.798 40.402 17.18 C 40.473 18.32 40.473 18.32 41.511 19.64 C 42.949 19.909 44.305 20.096 45.755 20.225 C 46.346 20.285 46.346 20.285 46.95 20.347 C 47.924 20.445 48.9 20.535 49.875 20.624 C 49.882 20.308 49.889 19.991 49.896 19.665 C 50.203 13.84 52.022 9.056 56.142 4.868 C 58.189 3.083 59.924 2.269 62.697 2.421 C 64.899 2.811 66.038 3.788 67.586 5.373 C 69.137 7.929 68.933 10.715 68.266 13.554 C 66.859 17.631 64.231 19.9 60.452 21.823 C 59.6 22.204 59.6 22.204 58.73 22.592 C 58.627 25.297 58.984 27.655 59.622 30.279 C 59.703 30.642 59.785 31.005 59.869 31.378 C 60.349 33.398 60.805 35.244 62.174 36.859 C 63.392 37.208 63.392 37.208 64.634 36.859 C 65.584 36.175 65.584 36.175 66.387 35.137 C 66.721 34.737 67.055 34.337 67.399 33.925 C 69.56 31.168 71.661 28.369 73.74 25.551 C 74.96 23.903 76.192 22.264 77.425 20.624 C 78.237 20.787 79.049 20.949 79.885 21.116 C 79.59 22.565 79.159 23.579 78.317 24.791 C 78.097 25.109 77.877 25.428 77.65 25.757 C 77.414 26.092 77.177 26.428 76.933 26.774 C 76.69 27.121 76.448 27.469 76.198 27.827 C 75.463 28.873 74.723 29.915 73.981 30.956 C 73.77 31.254 73.558 31.552 73.34 31.859 C 67.726 39.731 67.726 39.731 63.646 40.485 C 60.409 40.587 57.906 39.76 55.287 37.843 C 51.963 34.431 49.964 29.622 49.827 24.86 C 49.843 24.436 49.859 24.013 49.875 23.576 C 49.234 23.585 49.234 23.585 48.58 23.593 C 48.013 23.598 47.446 23.602 46.862 23.607 C 46.302 23.612 45.743 23.618 45.167 23.624 C 43.571 23.579 42.092 23.386 40.528 23.084 C 40.349 23.993 40.349 23.993 40.166 24.921 C 37.433 38.552 37.433 38.552 33.64 41.779 C 31.551 43.077 29.145 43.084 26.752 42.763 C 23.093 41.274 21.207 38.779 19.627 35.21 C 18.43 32.071 17.561 29.4 17.897 26.036 C 17.572 26.036 17.248 26.036 16.913 26.036 C 16.841 26.827 16.841 26.827 16.767 27.635 C 16.411 30.46 15.616 33.147 14.822 35.875 C 14.61 36.644 14.61 36.644 14.394 37.428 C 13.517 40.46 12.529 43.236 10.518 45.715 C 8.925 46.511 7.319 46.482 5.598 46.207 C 2.249 44 1.412 39.661 0.634 35.941 C 0.007 32.328 -0.009 28.707 0.002 25.052 C 0.002 24.696 0.002 24.34 0.003 23.973 C 0.018 19.627 0.14 15.339 0.986 11.062 C 1.055 10.687 1.123 10.313 1.194 9.927 C 1.435 8.911 1.435 8.911 2.154 7.341 C 4.279 6.165 5.743 6.412 8.058 6.849 C 8.056 7.305 8.056 7.305 8.054 7.771 C 8.043 10.972 8.036 14.173 8.031 17.374 C 8.028 18.564 8.025 19.754 8.021 20.945 C 7.983 30.389 7.983 30.389 8.55 39.811 C 9.28 39.567 9.28 39.567 10.026 39.319 C 10.523 37.888 10.922 36.512 11.284 35.045 C 11.398 34.607 11.511 34.169 11.628 33.717 C 11.991 32.306 12.346 30.893 12.701 29.48 C 12.937 28.557 13.175 27.635 13.413 26.712 C 14.314 23.199 15.21 19.686 16.012 16.148 C 16.1 15.761 16.189 15.373 16.28 14.974 C 16.443 14.251 16.602 13.527 16.758 12.802 C 17.297 10.401 17.297 10.401 18.389 9.309 C 21.185 9.043 21.185 9.043 22.325 9.309 C 23.605 10.714 24.001 11.743 24.164 13.619 C 24.21 14.083 24.257 14.547 24.305 15.025 C 24.352 15.523 24.398 16.021 24.446 16.535 C 24.935 21.032 25.691 25.389 26.752 29.787 C 26.875 30.303 26.998 30.818 27.124 31.349 C 27.748 33.854 28.418 36.092 29.704 38.335 C 30.354 38.335 31.003 38.335 31.672 38.335 C 33.915 33.157 36.233 26.849 35.608 21.116 C 34.836 19.85 34.836 19.85 33.763 18.718 C 30.336 14.679 28.448 10.452 28.563 5.064 C 28.854 2.91 29.914 1.56 31.58 0.238 C 33.253 -0.192 34.44 0.009 36.1 0.454 Z" fill="currentColor" fill-rule="nonzero"/>
</svg>
